# xmcd CD database file
#
# Track frame offsets:
#	150
#	18590
#	37855
#
# Disc length: 793 seconds
#
# Revision: 0
# Processed by: cddbd v1.5.1PL0 Copyright (c) Steve Scherf et al.
# Submitted via: CDex 1.51
#
DISCID=18031703
DTITLE=Asuka - Me and My Girlfriend
DYEAR=2004
DGENRE=Vocal
TTITLE0=Me and My Girlfriend
TTITLE1=Never Stop The Flow
TTITLE2=話をしようよ -Candy Talk Mix-
EXTD=YEAR: 2004
EXTT0=
EXTT1=
EXTT2=
PLAYORDER=
